<svg width="20" height="20" viewBox="0 0 20 20" fill="none" xmlns="http://www.w3.org/2000/svg">
<path d="M10.0003 18.9582C5.05866 18.9582 1.04199 14.9415 1.04199 9.99984C1.04199 5.05817 5.05866 1.0415 10.0003 1.0415C14.942 1.0415 18.9587 5.05817 18.9587 9.99984C18.9587 14.9415 14.942 18.9582 10.0003 18.9582ZM10.0003 2.2915C5.75033 2.2915 2.29199 5.74984 2.29199 9.99984C2.29199 14.2498 5.75033 17.7082 10.0003 17.7082C14.2503 17.7082 17.7087 14.2498 17.7087 9.99984C17.7087 5.74984 14.2503 2.2915 10.0003 2.2915Z" fill="#989898"/>
<path d="M13.3337 10.625H6.66699C6.32533 10.625 6.04199 10.3417 6.04199 10C6.04199 9.65833 6.32533 9.375 6.66699 9.375H13.3337C13.6753 9.375 13.9587 9.65833 13.9587 10C13.9587 10.3417 13.6753 10.625 13.3337 10.625Z" fill="#989898"/>
<path d="M10 13.9582C9.65833 13.9582 9.375 13.6748 9.375 13.3332V6.6665C9.375 6.32484 9.65833 6.0415 10 6.0415C10.3417 6.0415 10.625 6.32484 10.625 6.6665V13.3332C10.625 13.6748 10.3417 13.9582 10 13.9582Z" fill="#989898"/>
</svg>
