<svg width="22" height="22" viewBox="0 0 22 22" fill="none" xmlns="http://www.w3.org/2000/svg">
<path d="M11.1839 15.9317C10.5423 15.9317 9.89143 15.6842 9.4056 15.1983C8.92893 14.7217 8.6631 14.0892 8.6631 13.42C8.6631 12.7509 8.92893 12.1092 9.4056 11.6417L10.6981 10.3492C10.9639 10.0834 11.4039 10.0834 11.6697 10.3492C11.9356 10.615 11.9356 11.055 11.6697 11.3209L10.3773 12.6134C10.1573 12.8334 10.0381 13.1175 10.0381 13.42C10.0381 13.7225 10.1573 14.0158 10.3773 14.2267C10.8264 14.6758 11.5506 14.6758 11.9998 14.2267L14.0348 12.1917C15.1989 11.0275 15.1989 9.13919 14.0348 7.97503C12.8706 6.81086 10.9823 6.81086 9.81811 7.97503L7.59974 10.1933C7.13224 10.6608 6.87559 11.275 6.87559 11.9259C6.87559 12.5767 7.13224 13.2 7.59974 13.6583C7.86557 13.9242 7.86557 14.3642 7.59974 14.63C7.3339 14.8958 6.89391 14.8958 6.62807 14.63C5.90391 13.9058 5.50977 12.9433 5.50977 11.9167C5.50977 10.89 5.90391 9.92752 6.62807 9.20336L8.84645 6.98501C10.5423 5.28918 13.3106 5.28918 15.0064 6.98501C16.7023 8.68084 16.7023 11.4492 15.0064 13.145L12.9714 15.18C12.4764 15.6842 11.8348 15.9317 11.1839 15.9317Z" fill="#282828"/>
<path d="M11.0007 20.8541C5.56482 20.8541 1.14648 16.4358 1.14648 10.9999C1.14648 5.56409 5.56482 1.14575 11.0007 1.14575C16.4365 1.14575 20.8548 5.56409 20.8548 10.9999C20.8548 16.4358 16.4365 20.8541 11.0007 20.8541ZM11.0007 2.52075C6.32565 2.52075 2.52148 6.32492 2.52148 10.9999C2.52148 15.6749 6.32565 19.4791 11.0007 19.4791C15.6757 19.4791 19.4798 15.6749 19.4798 10.9999C19.4798 6.32492 15.6757 2.52075 11.0007 2.52075Z" fill="#282828"/>
</svg>
