<svg width="20" height="20" viewBox="0 0 20 20" fill="none" xmlns="http://www.w3.org/2000/svg">
<path d="M4.16667 12.2917C2.9 12.2917 1.875 11.2667 1.875 10C1.875 8.73337 2.9 7.70837 4.16667 7.70837C5.43333 7.70837 6.45833 8.73337 6.45833 10C6.45833 11.2667 5.43333 12.2917 4.16667 12.2917ZM4.16667 8.95837C3.59167 8.95837 3.125 9.42504 3.125 10C3.125 10.575 3.59167 11.0417 4.16667 11.0417C4.74167 11.0417 5.20833 10.575 5.20833 10C5.20833 9.42504 4.74167 8.95837 4.16667 8.95837Z" fill="#666666"/>
<path d="M15.8337 12.2917C14.567 12.2917 13.542 11.2667 13.542 10C13.542 8.73337 14.567 7.70837 15.8337 7.70837C17.1003 7.70837 18.1253 8.73337 18.1253 10C18.1253 11.2667 17.1003 12.2917 15.8337 12.2917ZM15.8337 8.95837C15.2587 8.95837 14.792 9.42504 14.792 10C14.792 10.575 15.2587 11.0417 15.8337 11.0417C16.4087 11.0417 16.8753 10.575 16.8753 10C16.8753 9.42504 16.4087 8.95837 15.8337 8.95837Z" fill="#666666"/>
<path d="M9.99967 12.2917C8.73301 12.2917 7.70801 11.2667 7.70801 10C7.70801 8.73337 8.73301 7.70837 9.99967 7.70837C11.2663 7.70837 12.2913 8.73337 12.2913 10C12.2913 11.2667 11.2663 12.2917 9.99967 12.2917ZM9.99967 8.95837C9.42467 8.95837 8.95801 9.42504 8.95801 10C8.95801 10.575 9.42467 11.0417 9.99967 11.0417C10.5747 11.0417 11.0413 10.575 11.0413 10C11.0413 9.42504 10.5747 8.95837 9.99967 8.95837Z" fill="#666666"/>
</svg>
