<svg width="20" height="20" viewBox="0 0 20 20" fill="none" xmlns="http://www.w3.org/2000/svg">
<path d="M10 11.4583C9.65833 11.4583 9.375 11.175 9.375 10.8333V6.66663C9.375 6.32496 9.65833 6.04163 10 6.04163C10.3417 6.04163 10.625 6.32496 10.625 6.66663V10.8333C10.625 11.175 10.3417 11.4583 10 11.4583Z" fill="#989898"/>
<path d="M9.99967 18.9583C5.63301 18.9583 2.08301 15.4083 2.08301 11.0417C2.08301 6.675 5.63301 3.125 9.99967 3.125C14.3663 3.125 17.9163 6.675 17.9163 11.0417C17.9163 11.3833 17.633 11.6667 17.2913 11.6667C16.9497 11.6667 16.6663 11.3833 16.6663 11.0417C16.6663 7.36667 13.6747 4.375 9.99967 4.375C6.32467 4.375 3.33301 7.36667 3.33301 11.0417C3.33301 14.7167 6.32467 17.7083 9.99967 17.7083C10.3413 17.7083 10.6247 17.9917 10.6247 18.3333C10.6247 18.675 10.3413 18.9583 9.99967 18.9583Z" fill="#989898"/>
<path d="M12.5 2.29163H7.5C7.15833 2.29163 6.875 2.00829 6.875 1.66663C6.875 1.32496 7.15833 1.04163 7.5 1.04163H12.5C12.8417 1.04163 13.125 1.32496 13.125 1.66663C13.125 2.00829 12.8417 2.29163 12.5 2.29163Z" fill="#989898"/>
<path d="M13.4587 18.35C13.167 18.35 12.9003 18.2833 12.6587 18.1416C12.1087 17.825 11.792 17.1833 11.792 16.3833V14.4583C11.792 13.6583 12.1087 13.0166 12.6587 12.7C13.2087 12.3833 13.917 12.4333 14.6087 12.825L16.2753 13.7916C16.967 14.1916 17.367 14.7833 17.367 15.4166C17.367 16.05 16.967 16.6416 16.2753 17.0416L14.6087 18.0083C14.2253 18.2333 13.8337 18.35 13.4587 18.35ZM13.467 13.7333C13.4003 13.7333 13.3337 13.75 13.2837 13.775C13.1337 13.8583 13.042 14.1166 13.042 14.45V16.375C13.042 16.7083 13.1337 16.9666 13.2837 17.05C13.4337 17.1333 13.7003 17.0916 13.9837 16.925L15.6503 15.9583C15.942 15.7916 16.117 15.5833 16.117 15.4166C16.117 15.25 15.942 15.0416 15.6503 14.875L13.9837 13.9083C13.792 13.7916 13.6087 13.7333 13.467 13.7333Z" fill="#989898"/>
</svg>
