<svg width="20" height="20" viewBox="0 0 20 20" fill="none" xmlns="http://www.w3.org/2000/svg">
<path d="M9.25033 18.9582H5.75033C2.49199 18.9582 1.04199 17.5082 1.04199 14.2498V10.7498C1.04199 7.4915 2.49199 6.0415 5.75033 6.0415H9.25033C12.5087 6.0415 13.9587 7.4915 13.9587 10.7498V14.2498C13.9587 17.5082 12.5087 18.9582 9.25033 18.9582ZM5.75033 7.2915C3.16699 7.2915 2.29199 8.1665 2.29199 10.7498V14.2498C2.29199 16.8332 3.16699 17.7082 5.75033 17.7082H9.25033C11.8337 17.7082 12.7087 16.8332 12.7087 14.2498V10.7498C12.7087 8.1665 11.8337 7.2915 9.25033 7.2915H5.75033Z" fill="#666666"/>
<path d="M14.2503 13.9582H13.3337C12.992 13.9582 12.7087 13.6748 12.7087 13.3332V10.7498C12.7087 8.1665 11.8337 7.2915 9.25033 7.2915H6.66699C6.32533 7.2915 6.04199 7.00817 6.04199 6.6665V5.74984C6.04199 2.4915 7.49199 1.0415 10.7503 1.0415H14.2503C17.5087 1.0415 18.9587 2.4915 18.9587 5.74984V9.24984C18.9587 12.5082 17.5087 13.9582 14.2503 13.9582ZM13.9587 12.7082H14.2503C16.8337 12.7082 17.7087 11.8332 17.7087 9.24984V5.74984C17.7087 3.1665 16.8337 2.2915 14.2503 2.2915H10.7503C8.16699 2.2915 7.29199 3.1665 7.29199 5.74984V6.0415H9.25033C12.5087 6.0415 13.9587 7.4915 13.9587 10.7498V12.7082Z" fill="#666666"/>
</svg>
