<svg width="13" height="13" viewBox="0 0 13 13" fill="none" xmlns="http://www.w3.org/2000/svg">
<path d="M6.49957 7.67536C5.34582 7.67536 4.40332 6.73828 4.40332 5.57911C4.40332 4.41995 5.34582 3.48828 6.49957 3.48828C7.65332 3.48828 8.59582 4.42536 8.59582 5.58453C8.59582 6.7437 7.65332 7.67536 6.49957 7.67536ZM6.49957 4.30078C5.7954 4.30078 5.21582 4.87495 5.21582 5.58453C5.21582 6.29411 5.78999 6.86828 6.49957 6.86828C7.20915 6.86828 7.78332 6.29411 7.78332 5.58453C7.78332 4.87495 7.20374 4.30078 6.49957 4.30078Z" fill="#4E4E4E"/>
<path d="M6.49991 12.3284C5.69825 12.3284 4.89116 12.025 4.26283 11.4238C2.66491 9.88546 0.899079 7.43171 1.56533 4.51212C2.16658 1.86337 4.4795 0.677124 6.49991 0.677124C6.49991 0.677124 6.49991 0.677124 6.50533 0.677124C8.52575 0.677124 10.8387 1.86337 11.4399 4.51754C12.1007 7.43712 10.3349 9.88546 8.737 11.4238C8.10866 12.025 7.30158 12.3284 6.49991 12.3284ZM6.49991 1.48962C4.92366 1.48962 2.89783 2.32921 2.36158 4.69087C1.77658 7.24212 3.37991 9.44129 4.83158 10.8334C5.76866 11.738 7.23658 11.738 8.17366 10.8334C9.61991 9.44129 11.2232 7.24212 10.6491 4.69087C10.1074 2.32921 8.07616 1.48962 6.49991 1.48962Z" fill="#4E4E4E"/>
</svg>
