<svg width="20" height="20" viewBox="0 0 20 20" fill="none" xmlns="http://www.w3.org/2000/svg">
<path d="M7.63265 9.68333C7.60765 9.68333 7.59098 9.68333 7.56598 9.68333C7.52432 9.675 7.46598 9.675 7.41598 9.68333C4.99932 9.60833 3.17432 7.70833 3.17432 5.36667C3.17432 2.98333 5.11598 1.04167 7.49932 1.04167C9.88265 1.04167 11.8243 2.98333 11.8243 5.36667C11.816 7.70833 9.98265 9.60833 7.65765 9.68333C7.64932 9.68333 7.64098 9.68333 7.63265 9.68333ZM7.49932 2.29167C5.80765 2.29167 4.42432 3.675 4.42432 5.36667C4.42432 7.03333 5.72432 8.375 7.38265 8.43333C7.43265 8.425 7.54098 8.425 7.64932 8.43333C9.28265 8.35833 10.566 7.01667 10.5743 5.36667C10.5743 3.675 9.19098 2.29167 7.49932 2.29167Z" fill="#4E4E4E"/>
<path d="M13.783 9.79167C13.758 9.79167 13.733 9.79167 13.708 9.78333C13.3663 9.81667 13.0163 9.575 12.983 9.23333C12.9496 8.89167 13.158 8.58333 13.4996 8.54167C13.5996 8.53333 13.708 8.53333 13.7996 8.53333C15.0163 8.46667 15.9663 7.46667 15.9663 6.24167C15.9663 4.975 14.9413 3.95 13.6746 3.95C13.333 3.95833 13.0496 3.675 13.0496 3.33333C13.0496 2.99167 13.333 2.70833 13.6746 2.70833C15.6246 2.70833 17.2163 4.3 17.2163 6.25C17.2163 8.16667 15.7163 9.71667 13.808 9.79167C13.7996 9.79167 13.7913 9.79167 13.783 9.79167Z" fill="#4E4E4E"/>
<path d="M7.64134 18.7917C6.00801 18.7917 4.36634 18.375 3.12467 17.5417C1.96634 16.775 1.33301 15.725 1.33301 14.5833C1.33301 13.4417 1.96634 12.3833 3.12467 11.6083C5.62467 9.95 9.67467 9.95 12.158 11.6083C13.308 12.375 13.9497 13.425 13.9497 14.5667C13.9497 15.7083 13.3163 16.7667 12.158 17.5417C10.908 18.375 9.27467 18.7917 7.64134 18.7917ZM3.81634 12.6583C3.01634 13.1917 2.58301 13.875 2.58301 14.5917C2.58301 15.3 3.02467 15.9833 3.81634 16.5083C5.89134 17.9 9.39134 17.9 11.4663 16.5083C12.2663 15.975 12.6997 15.2917 12.6997 14.575C12.6997 13.8667 12.258 13.1833 11.4663 12.6583C9.39134 11.275 5.89134 11.275 3.81634 12.6583Z" fill="#4E4E4E"/>
<path d="M15.283 17.2917C14.9913 17.2917 14.733 17.0917 14.6746 16.7917C14.608 16.45 14.8246 16.125 15.158 16.05C15.683 15.9417 16.1663 15.7333 16.5413 15.4417C17.0163 15.0833 17.2746 14.6333 17.2746 14.1583C17.2746 13.6833 17.0163 13.2333 16.5496 12.8833C16.183 12.6 15.7246 12.4 15.183 12.275C14.8496 12.2 14.633 11.8667 14.708 11.525C14.783 11.1917 15.1163 10.975 15.458 11.05C16.1746 11.2083 16.7996 11.4917 17.308 11.8833C18.083 12.4667 18.5246 13.2917 18.5246 14.1583C18.5246 15.025 18.0746 15.85 17.2996 16.4417C16.783 16.8417 16.133 17.1333 15.4163 17.275C15.3663 17.2917 15.3246 17.2917 15.283 17.2917Z" fill="#4E4E4E"/>
</svg>
