<svg width="50" height="50" viewBox="0 0 50 50" fill="none" xmlns="http://www.w3.org/2000/svg">
<path d="M37.4993 16.4792C37.4368 16.4792 37.3952 16.4792 37.3327 16.4792H37.2285C33.291 16.3542 30.3535 13.3125 30.3535 9.5625C30.3535 5.72917 33.4785 2.625 37.291 2.625C41.1035 2.625 44.2285 5.75 44.2285 9.5625C44.2077 13.3333 41.2702 16.375 37.5202 16.5C37.5202 16.4792 37.5202 16.4792 37.4993 16.4792ZM37.291 5.72918C35.1869 5.72918 33.4785 7.43752 33.4785 9.54168C33.4785 11.6042 35.0827 13.2709 37.1452 13.3542C37.166 13.3334 37.3327 13.3334 37.5202 13.3542C39.541 13.25 41.1035 11.5833 41.1244 9.54168C41.1244 7.43752 39.416 5.72918 37.291 5.72918Z" fill="#7F7F7F"/>
<path d="M37.5204 31.8334C36.7079 31.8334 35.8954 31.7709 35.0829 31.6251C34.2287 31.4793 33.6662 30.6668 33.8121 29.8126C33.9579 28.9584 34.7704 28.3959 35.6246 28.5418C38.1871 28.9793 40.8954 28.5001 42.7079 27.2918C43.6871 26.646 44.2079 25.8334 44.2079 25.0209C44.2079 24.2084 43.6662 23.4168 42.7079 22.7709C40.8954 21.5626 38.1454 21.0834 35.5621 21.5418C34.7079 21.7084 33.8954 21.1251 33.7496 20.2709C33.6037 19.4168 34.1662 18.6043 35.0204 18.4584C38.4162 17.8543 41.9371 18.5001 44.4371 20.1668C46.2704 21.3959 47.3329 23.1459 47.3329 25.0209C47.3329 26.8751 46.2912 28.646 44.4371 29.896C42.5412 31.146 40.0829 31.8334 37.5204 31.8334Z" fill="#7F7F7F"/>
<path d="M12.4375 16.4791C12.4167 16.4791 12.3958 16.4791 12.3958 16.4791C8.64584 16.3541 5.70833 13.3125 5.6875 9.56245C5.6875 5.72912 8.8125 2.60413 12.625 2.60413C16.4375 2.60413 19.5625 5.72913 19.5625 9.54163C19.5625 13.3125 16.625 16.3541 12.875 16.4791L12.4375 14.9166L12.5833 16.4791C12.5417 16.4791 12.4792 16.4791 12.4375 16.4791ZM12.6458 13.3541C12.7708 13.3541 12.875 13.3541 13 13.375C14.8542 13.2916 16.4792 11.625 16.4792 9.56245C16.4792 7.45828 14.7708 5.74995 12.6667 5.74995C10.5625 5.74995 8.85417 7.45828 8.85417 9.56245C8.85417 11.6041 10.4375 13.25 12.4583 13.375C12.4792 13.3541 12.5625 13.3541 12.6458 13.3541Z" fill="#7F7F7F"/>
<path d="M12.417 31.8334C9.85449 31.8334 7.39616 31.146 5.50032 29.896C3.66699 28.6668 2.60449 26.8959 2.60449 25.0209C2.60449 23.1668 3.66699 21.3959 5.50032 20.1668C8.00032 18.5001 11.5212 17.8543 14.917 18.4584C15.7712 18.6043 16.3337 19.4168 16.1878 20.2709C16.042 21.1251 15.2295 21.7084 14.3753 21.5418C11.792 21.0834 9.06283 21.5626 7.22949 22.7709C6.25033 23.4168 5.72949 24.2084 5.72949 25.0209C5.72949 25.8334 6.27116 26.646 7.22949 27.2918C9.04199 28.5001 11.7503 28.9793 14.3128 28.5418C15.167 28.3959 15.9795 28.9793 16.1253 29.8126C16.2712 30.6668 15.7087 31.4793 14.8545 31.6251C14.042 31.7709 13.2295 31.8334 12.417 31.8334Z" fill="#7F7F7F"/>
<path d="M24.9994 32.0417C24.9369 32.0417 24.8952 32.0417 24.8327 32.0417H24.7285C20.791 31.9167 17.8535 28.875 17.8535 25.125C17.8535 21.2917 20.9785 18.1875 24.791 18.1875C28.6035 18.1875 31.7285 21.3125 31.7285 25.125C31.7077 28.8958 28.7702 31.9375 25.0202 32.0625C25.0202 32.0417 25.0202 32.0417 24.9994 32.0417ZM24.791 21.2917C22.6869 21.2917 20.9785 23 20.9785 25.1042C20.9785 27.1667 22.5827 28.8334 24.6452 28.9167C24.666 28.8959 24.8327 28.8959 25.0202 28.9167C27.041 28.8125 28.6035 27.1458 28.6244 25.1042C28.6244 23.0208 26.916 21.2917 24.791 21.2917Z" fill="#7F7F7F"/>
<path d="M24.9994 47.4166C22.4994 47.4166 19.9993 46.7708 18.0618 45.4583C16.2285 44.2292 15.166 42.4791 15.166 40.6041C15.166 38.75 16.2077 36.9583 18.0618 35.7291C21.9577 33.1458 28.0619 33.1458 31.9369 35.7291C33.7702 36.9583 34.8327 38.7083 34.8327 40.5833C34.8327 42.4375 33.791 44.2292 31.9369 45.4583C29.9994 46.75 27.4994 47.4166 24.9994 47.4166ZM19.791 38.3541C18.8119 39 18.291 39.8125 18.291 40.625C18.291 41.4375 18.8327 42.2291 19.791 42.875C22.6035 44.7708 27.3744 44.7708 30.1869 42.875C31.166 42.2291 31.6868 41.4166 31.6868 40.6041C31.6868 39.7917 31.1452 39 30.1869 38.3541C27.3952 36.4583 22.6244 36.4791 19.791 38.3541Z" fill="#7F7F7F"/>
</svg>
