<svg width="17" height="17" viewBox="0 0 17 17" fill="none" xmlns="http://www.w3.org/2000/svg">
<path d="M8.49967 9.03158C6.25426 9.03158 4.42676 7.20408 4.42676 4.95866C4.42676 2.71324 6.25426 0.885742 8.49967 0.885742C10.7451 0.885742 12.5726 2.71324 12.5726 4.95866C12.5726 7.20408 10.7451 9.03158 8.49967 9.03158ZM8.49967 1.94824C6.84217 1.94824 5.48926 3.30116 5.48926 4.95866C5.48926 6.61616 6.84217 7.96908 8.49967 7.96908C10.1572 7.96908 11.5101 6.61616 11.5101 4.95866C11.5101 3.30116 10.1572 1.94824 8.49967 1.94824Z" fill="#4E4E4E"/>
<path d="M14.5852 16.1146C14.2948 16.1146 14.0539 15.8738 14.0539 15.5833C14.0539 13.1396 11.5606 11.1562 8.5006 11.1562C5.4406 11.1562 2.94727 13.1396 2.94727 15.5833C2.94727 15.8738 2.70643 16.1146 2.41602 16.1146C2.1256 16.1146 1.88477 15.8738 1.88477 15.5833C1.88477 12.5588 4.85268 10.0938 8.5006 10.0938C12.1485 10.0938 15.1164 12.5588 15.1164 15.5833C15.1164 15.8738 14.8756 16.1146 14.5852 16.1146Z" fill="#4E4E4E"/>
</svg>
