<svg width="17" height="17" viewBox="0 0 17 17" fill="none" xmlns="http://www.w3.org/2000/svg">
<path d="M10.795 15.7748H10.7029C7.55795 15.7748 6.04211 14.5352 5.78003 11.7585C5.7517 11.4681 5.9642 11.206 6.2617 11.1777C6.54503 11.1493 6.8142 11.3689 6.84253 11.6593C7.04795 13.8835 8.09628 14.7123 10.71 14.7123H10.8021C13.685 14.7123 14.705 13.6923 14.705 10.8093V6.191C14.705 3.30809 13.685 2.28809 10.8021 2.28809H10.71C8.08211 2.28809 7.03378 3.131 6.84253 5.39767C6.80711 5.68809 6.5592 5.90767 6.2617 5.87934C5.9642 5.85809 5.7517 5.596 5.77295 5.30559C6.01378 2.48642 7.5367 1.22559 10.7029 1.22559H10.795C14.2729 1.22559 15.7604 2.71309 15.7604 6.191V10.8093C15.7604 14.2873 14.2729 15.7748 10.795 15.7748Z" fill="#BE0000"/>
<path d="M10.6253 9.03125H2.56445C2.27404 9.03125 2.0332 8.79042 2.0332 8.5C2.0332 8.20958 2.27404 7.96875 2.56445 7.96875H10.6253C10.9157 7.96875 11.1565 8.20958 11.1565 8.5C11.1565 8.79042 10.9157 9.03125 10.6253 9.03125Z" fill="#BE0000"/>
<path d="M4.14361 11.4042C4.00902 11.4042 3.87444 11.3546 3.76819 11.2484L1.39527 8.87547C1.18986 8.67005 1.18986 8.33005 1.39527 8.12464L3.76819 5.75172C3.97361 5.5463 4.31361 5.5463 4.51902 5.75172C4.72444 5.95714 4.72444 6.29714 4.51902 6.50255L2.52152 8.50005L4.51902 10.4976C4.72444 10.703 4.72444 11.043 4.51902 11.2484C4.41986 11.3546 4.27819 11.4042 4.14361 11.4042Z" fill="#BE0000"/>
</svg>
