<svg width="50" height="50" viewBox="0 0 50 50" fill="none" xmlns="http://www.w3.org/2000/svg">
<path d="M25.0003 47.3958C12.6462 47.3958 2.60449 37.3541 2.60449 25C2.60449 12.6458 12.6462 2.60413 25.0003 2.60413C37.3545 2.60413 47.3962 12.6458 47.3962 25C47.3962 37.3541 37.3545 47.3958 25.0003 47.3958ZM25.0003 5.72913C14.3753 5.72913 5.72949 14.375 5.72949 25C5.72949 35.625 14.3753 44.2708 25.0003 44.2708C35.6253 44.2708 44.2712 35.625 44.2712 25C44.2712 14.375 35.6253 5.72913 25.0003 5.72913Z" fill="#7F7F7F"/>
<path d="M32.7292 33.1875C32.4583 33.1875 32.1875 33.125 31.9375 32.9584L25.4792 29.1042C23.875 28.1459 22.6875 26.0417 22.6875 24.1875V15.6459C22.6875 14.7917 23.3958 14.0834 24.25 14.0834C25.1042 14.0834 25.8125 14.7917 25.8125 15.6459V24.1875C25.8125 24.9375 26.4375 26.0417 27.0833 26.4167L33.5417 30.2709C34.2917 30.7084 34.5208 31.6667 34.0833 32.4167C33.7708 32.9167 33.25 33.1875 32.7292 33.1875Z" fill="#7F7F7F"/>
</svg>
