<svg width="20" height="20" viewBox="0 0 20 20" fill="none" xmlns="http://www.w3.org/2000/svg">
<path d="M10.0007 10.6248C7.35898 10.6248 5.20898 8.47484 5.20898 5.83317C5.20898 3.1915 7.35898 1.0415 10.0007 1.0415C12.6423 1.0415 14.7923 3.1915 14.7923 5.83317C14.7923 8.47484 12.6423 10.6248 10.0007 10.6248ZM10.0007 2.2915C8.05065 2.2915 6.45898 3.88317 6.45898 5.83317C6.45898 7.78317 8.05065 9.37484 10.0007 9.37484C11.9507 9.37484 13.5423 7.78317 13.5423 5.83317C13.5423 3.88317 11.9507 2.2915 10.0007 2.2915Z" fill="#282828"/>
<path d="M2.8418 18.9583C2.50013 18.9583 2.2168 18.675 2.2168 18.3333C2.2168 14.775 5.70846 11.875 10.0001 11.875C10.8418 11.875 11.6668 11.9834 12.4668 12.2084C12.8001 12.3 12.9918 12.6417 12.9001 12.975C12.8085 13.3083 12.4668 13.5 12.1335 13.4084C11.4501 13.2167 10.7335 13.125 10.0001 13.125C6.40013 13.125 3.4668 15.4583 3.4668 18.3333C3.4668 18.675 3.18346 18.9583 2.8418 18.9583Z" fill="#282828"/>
<path d="M14.9993 18.9582C13.616 18.9582 12.316 18.2248 11.616 17.0332C11.241 16.4332 11.041 15.7248 11.041 14.9998C11.041 13.7832 11.5827 12.6582 12.5243 11.9082C13.2243 11.3498 14.1077 11.0415 14.9993 11.0415C17.1827 11.0415 18.9577 12.8165 18.9577 14.9998C18.9577 15.7248 18.7577 16.4332 18.3827 17.0415C18.1743 17.3915 17.9077 17.7082 17.591 17.9748C16.8993 18.6082 15.9743 18.9582 14.9993 18.9582ZM14.9993 12.2915C14.3827 12.2915 13.7993 12.4998 13.3077 12.8915C12.666 13.3998 12.291 14.1748 12.291 14.9998C12.291 15.4915 12.4243 15.9748 12.6827 16.3915C13.166 17.2082 14.0577 17.7082 14.9993 17.7082C15.6577 17.7082 16.291 17.4665 16.7744 17.0332C16.991 16.8498 17.1743 16.6332 17.3077 16.3998C17.5743 15.9748 17.7077 15.4915 17.7077 14.9998C17.7077 13.5082 16.491 12.2915 14.9993 12.2915Z" fill="#282828"/>
<path d="M14.5241 16.4501C14.3657 16.4501 14.2074 16.3918 14.0824 16.2668L13.2574 15.4418C13.0158 15.2002 13.0158 14.8001 13.2574 14.5584C13.4991 14.3168 13.8991 14.3168 14.1408 14.5584L14.5408 14.9585L15.8741 13.7251C16.1241 13.4918 16.5241 13.5085 16.7574 13.7585C16.9907 14.0085 16.9741 14.4085 16.7241 14.6418L14.9491 16.2835C14.8241 16.3918 14.6741 16.4501 14.5241 16.4501Z" fill="#282828"/>
</svg>
